<svg xmlns="http://www.w3.org/2000/svg">
    <symbol id="icon-chevron-down" viewBox="0 0 32 32">
        <path d="M8 12l8 8 8-8">
        </path>
    </symbol>
    <symbol id="icon-close" viewBox="0 0 32 32">
        <path d="M24 8l-16 16M8 8l16 16"></path>
    </symbol>
    <symbol id="icon-heart" viewBox="0 0 32 32">
        <path
            d="M27.787 6.148c-1.327-1.328-3.161-2.149-5.187-2.149s-3.859 0.821-5.187 2.149l-1.413 1.413-1.413-1.415c-1.327-1.327-3.161-2.148-5.187-2.148-4.051 0-7.336 3.284-7.336 7.336 0 2.026 0.821 3.86 2.149 5.188l11.787 11.785 11.787-11.787c1.327-1.328 2.148-3.161 2.148-5.187s-0.821-3.859-2.148-5.187l0 0z">
        </path>
    </symbol>
</svg>